<svg width="24" height="24" viewBox="0 0 24 24" fill="none" xmlns="http://www.w3.org/2000/svg">
<path d="M4.59961 10.4004C5.48326 10.4004 6.20018 11.1164 6.2002 12C6.2002 12.8837 5.48326 13.5996 4.59961 13.5996C3.71613 13.5994 3 12.8835 3 12C3.00001 11.1165 3.71614 10.4006 4.59961 10.4004ZM12 10.4004C12.8836 10.4004 13.5996 11.1164 13.5996 12C13.5996 12.8837 12.8837 13.5996 12 13.5996C11.1163 13.5996 10.4004 12.8837 10.4004 12C10.4004 11.1164 11.1164 10.4004 12 10.4004ZM19.5996 10.4004C20.4833 10.4004 21.2002 11.1164 21.2002 12C21.2002 12.8837 20.4833 13.5996 19.5996 13.5996C18.7161 13.5994 18 12.8835 18 12C18 11.1165 18.7161 10.4006 19.5996 10.4004Z" fill="currentColor"/>
</svg>
