<svg width="16" height="16" viewBox="0 0 16 16" fill="none" xmlns="http://www.w3.org/2000/svg">
<g clip-path="url(#pjtl{id})">
<path d="M8 0C12.4183 0 16 3.58172 16 8C16 12.4183 12.4183 16 8 16C3.58172 16 0 12.4183 0 8C0 3.58172 3.58172 0 8 0ZM8 1.2998C4.29969 1.2998 1.2998 4.29969 1.2998 8C1.2998 11.7003 4.29969 14.7002 8 14.7002C11.7003 14.7002 14.7002 11.7003 14.7002 8C14.7002 4.29969 11.7003 1.2998 8 1.2998ZM8 2.84961C8.35898 2.84961 8.65039 3.14102 8.65039 3.5V7.34961H11C11.359 7.34961 11.6504 7.64102 11.6504 8C11.6504 8.35898 11.359 8.65039 11 8.65039H8.2002C7.73075 8.65039 7.34961 8.26925 7.34961 7.7998V3.5C7.34961 3.14102 7.64102 2.84961 8 2.84961Z" fill="currentColor"/>
</g>
<defs>
<clipPath id="pjtl{id}">
<rect width="16" height="16" fill="white"/>
</clipPath>
</defs>
</svg>
