<svg class="currency-icon currency-icon--ngn" width="24" height="24" viewBox="0 0 24 24" fill="none" xmlns="http://www.w3.org/2000/svg">
    <g clip-path="url(#clip0_1076_1427)">
        <path fill-rule="evenodd" clip-rule="evenodd" d="M12 22C17.5228 22 22 17.5228 22 12C22 6.47715 17.5228 2 12 2C6.47715 2 2 6.47715 2 12C2 17.5228 6.47715 22 12 22ZM12 24C18.6274 24 24 18.6274 24 12C24 5.37258 18.6274 0 12 0C5.37258 0 0 5.37258 0 12C0 18.6274 5.37258 24 12 24Z" fill="currentColor"/>
        <path d="M7.2934 6.5C7.2934 5.94771 7.74111 5.5 8.2934 5.5L8.73917 5.50001C9.50989 5.50006 10.212 5.94297 10.544 6.63853L12.1336 9.96905H14.7954V6.54328C14.7954 5.9671 15.2625 5.50002 15.8387 5.50005C16.4148 5.50007 16.8819 5.96714 16.8819 6.54328V9.96588L17.4612 9.9673C17.8558 9.96826 18.1752 10.2884 18.1752 10.683C18.1752 11.0784 17.8547 11.3988 17.4594 11.3988H16.8819V12.3939H17.4609C17.8554 12.3939 18.1752 12.7137 18.1752 13.1083C18.1752 13.5028 17.8554 13.8226 17.4609 13.8226H16.8819V17.1949C16.8819 17.9157 16.2975 18.5 15.5767 18.5C15.1095 18.5 14.6779 18.2502 14.4451 17.8451L12.1336 13.8226H9.51735V17.4233C9.51735 18.0155 9.03811 18.4959 8.44597 18.4974C7.86103 18.4988 7.38248 18.0319 7.36952 17.4471L7.28917 13.8226H6.71438C6.31985 13.8226 6.00002 13.5028 6.00003 13.1082C6.00005 12.7137 6.31987 12.3939 6.71438 12.3939H7.2934V11.3988H6.71491C6.3201 11.3988 6.00005 11.0788 6.00003 10.684C6.00001 10.2891 6.32008 9.96905 6.71491 9.96905H7.2934V6.5ZM9.51735 11.3988V12.3939H11.3151L10.8498 11.3988H9.51735ZM13.4026 12.3939H14.7954V11.3988H12.9458L13.4026 12.3939ZM14.7954 13.8226H14.236L14.7954 14.9859V13.8226ZM9.51735 8.96441V9.96905H10.0006L9.51735 8.96441Z" fill="currentColor"/>
    </g>
    <defs>
        <clipPath id="clip0_1076_1427">
            <rect width="24" height="24" fill="currentColor"/>
        </clipPath>
    </defs>
</svg>
